<?xml version="1.0" encoding="utf-8"?>
<!-- Generator: Adobe Illustrator 21.0.2, SVG Export Plug-In . SVG Version: 6.00 Build 0)  -->
<svg version="1.1" id="Layer_1" xmlns="http://www.w3.org/2000/svg" xmlns:xlink="http://www.w3.org/1999/xlink" x="0px" y="0px"
	 viewBox="0 0 550 255.1" style="enable-background:new 0 0 550 255.1;" xml:space="preserve">
<style type="text/css">
	.st0{fill:#FF0000;}
	.st1{fill:#FFFFFF;}
</style>
<g>
	<path class="st0" d="M203.5,98.3c-1.4-5.2-5.5-9.3-10.7-10.7c-9.5-2.5-47.5-2.5-47.5-2.5s-38,0-47.5,2.5
		c-5.2,1.4-9.3,5.5-10.7,10.7c-2.5,9.5-2.5,29.2-2.5,29.2s0,19.8,2.5,29.2c1.4,5.2,5.5,9.3,10.7,10.7c9.5,2.5,47.5,2.5,47.5,2.5
		s38,0,47.5-2.5c5.2-1.4,9.3-5.5,10.7-10.7c2.5-9.5,2.5-29.2,2.5-29.2S206,107.8,203.5,98.3z"/>
	<polygon class="st1" points="133.1,145.8 164.7,127.6 133.1,109.3 	"/>
</g>
<g>
	<g>
		<path class="st1" d="M260.9,162.4c-2.4-1.6-4.1-4.1-5.1-7.6c-1-3.4-1.5-8-1.5-13.6v-7.7c0-5.7,0.6-10.3,1.7-13.8
			c1.2-3.5,3-6,5.4-7.6c2.5-1.6,5.7-2.4,9.7-2.4c3.9,0,7.1,0.8,9.5,2.4c2.4,1.6,4.1,4.2,5.2,7.6c1.1,3.4,1.7,8,1.7,13.8v7.7
			c0,5.7-0.5,10.2-1.6,13.7c-1.1,3.4-2.8,6-5.2,7.6c-2.4,1.6-5.7,2.4-9.8,2.4C266.6,164.8,263.3,164,260.9,162.4z M274.4,154.1
			c0.7-1.7,1-4.6,1-8.5V129c0-3.8-0.3-6.6-1-8.4c-0.7-1.8-1.8-2.6-3.5-2.6c-1.6,0-2.8,0.9-3.4,2.6c-0.7,1.8-1,4.6-1,8.4v16.6
			c0,3.9,0.3,6.8,1,8.5c0.6,1.7,1.8,2.6,3.5,2.6C272.5,156.7,273.7,155.8,274.4,154.1z"/>
		<path class="st1" d="M445.4,141.3v2.7c0,3.4,0.1,6,0.3,7.7c0.2,1.7,0.6,3,1.3,3.7c0.6,0.8,1.6,1.2,3,1.2c1.8,0,3-0.7,3.7-2.1
			c0.7-1.4,1-3.7,1.1-7l10.3,0.6c0.1,0.5,0.1,1.1,0.1,1.9c0,4.9-1.3,8.6-4,11s-6.5,3.6-11.4,3.6c-5.9,0-10-1.9-12.4-5.6
			c-2.4-3.7-3.6-9.4-3.6-17.2v-9.3c0-8,1.2-13.8,3.7-17.5c2.5-3.7,6.7-5.5,12.6-5.5c4.1,0,7.3,0.8,9.5,2.3c2.2,1.5,3.7,3.9,4.6,7
			c0.9,3.2,1.3,7.6,1.3,13.2v9.1H445.4z M446.9,118.9c-0.6,0.8-1,2-1.2,3.7c-0.2,1.7-0.3,4.3-0.3,7.8v3.8h8.8v-3.8
			c0-3.4-0.1-6-0.3-7.8c-0.2-1.8-0.7-3-1.3-3.7c-0.6-0.7-1.6-1.1-2.8-1.1C448.5,117.8,447.5,118.2,446.9,118.9z"/>
		<path class="st1" d="M231.7,140.3l-13.6-49.3H230l4.8,22.3c1.2,5.5,2.1,10.2,2.7,14.1h0.3c0.4-2.8,1.3-7.4,2.7-14l5-22.4h11.9
			l-13.8,49.3V164h-11.8V140.3z"/>
		<path class="st1" d="M326.1,110.7V164h-9.4l-1-6.5h-0.3c-2.5,4.9-6.4,7.4-11.5,7.4c-3.5,0-6.1-1.2-7.8-3.5
			c-1.7-2.3-2.5-5.9-2.5-10.9v-39.8h12v39.1c0,2.4,0.3,4.1,0.8,5.1c0.5,1,1.4,1.5,2.6,1.5c1,0,2-0.3,3-1c1-0.6,1.7-1.4,2.1-2.4
			v-42.3H326.1z"/>
		<path class="st1" d="M387.6,110.7V164h-9.4l-1-6.5h-0.3c-2.5,4.9-6.4,7.4-11.5,7.4c-3.5,0-6.1-1.2-7.8-3.5
			c-1.7-2.3-2.5-5.9-2.5-10.9v-39.8h12v39.1c0,2.4,0.3,4.1,0.8,5.1c0.5,1,1.4,1.5,2.6,1.5c1,0,2-0.3,3-1c1-0.6,1.7-1.4,2.1-2.4
			v-42.3H387.6z"/>
		<path class="st1" d="M358.7,100.7h-11.9V164h-11.7v-63.2h-11.9v-9.6h35.5V100.7z"/>
		<path class="st1" d="M427.3,119.2c-0.7-3.4-1.9-5.8-3.5-7.3c-1.6-1.5-3.9-2.3-6.7-2.3c-2.2,0-4.3,0.6-6.2,1.9
			c-1.9,1.2-3.4,2.9-4.4,4.9h-0.1l0-28.1h-11.6V164h9.9l1.2-5h0.3c0.9,1.8,2.3,3.2,4.2,4.3c1.9,1,3.9,1.6,6.2,1.6
			c4.1,0,7-1.9,8.9-5.6c1.9-3.7,2.9-9.6,2.9-17.5v-8.4C428.4,127.2,428,122.6,427.3,119.2z M416.3,140.9c0,3.9-0.2,6.9-0.5,9.1
			c-0.3,2.2-0.9,3.8-1.6,4.7c-0.8,0.9-1.8,1.4-3,1.4c-1,0-1.9-0.2-2.7-0.7c-0.8-0.5-1.5-1.2-2-2.1v-30.2c0.4-1.4,1.1-2.6,2.1-3.6
			c1-0.9,2.1-1.4,3.2-1.4c1.2,0,2.2,0.5,2.8,1.4c0.7,1,1.1,2.6,1.4,4.8c0.3,2.3,0.4,5.5,0.4,9.6V140.9z"/>
	</g>
</g>
</svg>
